<?xml version="1.0" encoding="UTF-8" standalone="no"?>
<svg
   xmlns:dc="http://purl.org/dc/elements/1.1/"
   xmlns:cc="http://creativecommons.org/ns#"
   xmlns:rdf="http://www.w3.org/1999/02/22-rdf-syntax-ns#"
   xmlns:svg="http://www.w3.org/2000/svg"
   xmlns="http://www.w3.org/2000/svg"
   id="svg5805"
   version="1.1"
   viewBox="0 0 50 50"
   height="50mm"
   width="50mm">
  <defs
     id="defs5799" />
  <metadata
     id="metadata5802">
    <rdf:RDF>
      <cc:Work
         rdf:about="">
        <dc:format>image/svg+xml</dc:format>
        <dc:type
           rdf:resource="http://purl.org/dc/dcmitype/StillImage" />
        <dc:title></dc:title>
      </cc:Work>
    </rdf:RDF>
  </metadata>
  <g
     transform="translate(0,-247)"
     id="layer1"
     style="fill:#000000;fill-opacity:1">
    <g
       transform="matrix(0.08969028,0,0,0.10057124,0,243.96718)"
       id="g6418"
       style="fill:#000000;fill-opacity:1">
      <g
         id="g6416"
         style="fill:#000000;fill-opacity:1">
        <path
           style="fill:#000000;fill-opacity:1;stroke-width:0.35896087"
           d="M 6.6308594 0 C 2.968784 2.7009645e-015 0 3.3295795 0 7.4355469 L 0 181.33594 C 0 185.4419 2.968784 188.77148 6.6308594 188.77148 L 8.5644531 188.77148 C 9.6329398 188.77148 10.498047 187.75394 10.498047 186.49805 L 10.498047 184.22656 C 10.498047 180.1206 13.46717 176.79102 17.128906 176.79102 L 34.810547 176.79102 C 36.316666 176.79102 37.702237 177.35717 38.814453 178.30859 C 39.725311 179.0882 40.244141 181.02262 40.244141 182.30664 L 40.244141 186.65039 C 40.244141 187.93479 41.173262 188.97656 42.318359 188.97656 L 146.6582 188.97656 C 147.8033 188.97656 148.73242 187.93479 148.73242 186.65039 L 148.73242 182.30664 C 148.73242 181.02262 149.25125 179.0882 150.16211 178.30859 C 151.27399 177.35717 152.65956 176.79102 154.16602 176.79102 L 171.84766 176.79102 C 175.50939 176.79102 178.47852 180.1206 178.47852 184.22656 L 178.47852 186.49805 C 178.47852 187.75394 179.34396 188.77148 180.41211 188.77148 L 182.3457 188.77148 C 186.00744 188.77148 188.97656 185.4419 188.97656 181.33594 L 188.97656 7.4355469 C 188.97758 3.3295795 186.00947 1.349904e-015 182.3457 0 L 180.41211 0 C 179.34396 0 178.47852 1.0171681 178.47852 2.2734375 L 178.47852 4.5449219 C 178.47852 8.6508893 175.50939 11.980469 171.84766 11.980469 L 154.16602 11.980469 C 150.50428 11.980469 147.53516 8.6508893 147.53516 4.5449219 L 147.53516 2.2734375 C 147.53516 1.0194488 146.67005 0 145.60156 0 L 143.66797 0 L 45.310547 0 L 43.376953 0 C 42.308466 0 41.443359 1.0171681 41.443359 2.2734375 L 41.443359 4.5449219 C 41.443359 8.6508893 38.476189 11.980469 34.814453 11.980469 L 17.132812 11.980469 C 13.471076 11.980469 10.501953 8.6508893 10.501953 4.5449219 L 10.501953 2.2734375 C 10.501953 1.0194488 9.636846 0 8.5683594 0 L 6.6308594 0 z M 17.130859 26.849609 L 34.8125 26.849609 C 38.474236 26.849609 41.443359 30.179189 41.443359 34.285156 L 41.443359 54.111328 L 41.441406 54.111328 C 41.441406 58.217296 38.474236 61.546875 34.8125 61.546875 L 17.130859 61.546875 C 13.469123 61.546875 10.5 58.217296 10.5 54.111328 L 10.5 34.285156 C 10.5 30.179189 13.469123 26.849609 17.130859 26.849609 z M 154.16602 26.849609 L 171.84766 26.849609 C 175.50939 26.849609 178.47852 30.179189 178.47852 34.285156 L 178.47852 54.111328 C 178.47852 58.217296 175.50939 61.546875 171.84766 61.546875 L 154.16602 61.546875 C 150.50428 61.546875 147.53516 58.217296 147.53516 54.111328 L 147.53516 34.285156 C 147.53516 30.179189 150.50428 26.849609 154.16602 26.849609 z M 83.080078 46.185547 L 105.95312 46.185547 C 107.56769 46.185547 108.91386 46.724428 109.99023 47.800781 C 111.06661 48.877157 111.60547 50.221372 111.60547 51.835938 L 111.60547 91.662109 L 134.47852 91.662109 C 136.63126 91.662109 138.51347 93.007405 139.58984 95.160156 C 140.66622 97.581998 140.12782 99.735044 138.24414 101.34961 L 98.419922 141.17578 C 97.343546 142.25216 95.99737 142.79102 94.382812 142.79102 C 92.768247 142.79102 91.422079 142.25213 90.345703 141.17578 L 50.519531 101.34961 C 48.635871 99.735044 48.368497 97.581998 49.175781 95.160156 C 50.252157 92.738311 51.865708 91.662109 54.556641 91.662109 L 77.429688 91.662109 L 77.429688 51.835938 C 77.429688 50.221372 77.968573 48.877157 79.044922 47.800781 C 80.121301 46.724406 81.465513 46.185547 83.080078 46.185547 z M 17.130859 76.416016 L 34.8125 76.416016 C 38.474236 76.416016 41.443359 79.745215 41.443359 83.851562 L 41.443359 103.67773 L 41.441406 103.67773 C 41.441406 107.7837 38.474236 111.11328 34.8125 111.11328 L 17.130859 111.11328 C 13.469123 111.11328 10.5 107.7837 10.5 103.67773 L 10.5 83.851562 C 10.5 79.745595 13.469123 76.416016 17.130859 76.416016 z M 154.16602 76.416016 L 171.84766 76.416016 C 175.50939 76.416016 178.47852 79.745215 178.47852 83.851562 L 178.47852 103.67773 C 178.47852 107.7837 175.50939 111.11328 171.84766 111.11328 L 154.16602 111.11328 C 150.50428 111.11328 147.53516 107.7837 147.53516 103.67773 L 147.53516 83.851562 C 147.53516 79.745595 150.50428 76.416016 154.16602 76.416016 z M 17.130859 125.98438 L 34.8125 125.98438 C 38.474236 125.98438 41.443359 129.31395 41.443359 133.41992 L 41.443359 153.24609 L 41.441406 153.24609 C 41.441406 157.35206 38.474236 160.68164 34.8125 160.68164 L 17.130859 160.68164 C 13.469123 160.68164 10.5 157.35206 10.5 153.24609 L 10.5 133.41992 C 10.5 129.31395 13.469123 125.98438 17.130859 125.98438 z M 154.16602 125.98438 L 171.84766 125.98438 C 175.50939 125.98438 178.47852 129.31395 178.47852 133.41992 L 178.47852 153.24609 C 178.47852 157.35206 175.50939 160.68164 171.84766 160.68164 L 154.16602 160.68164 C 150.50428 160.68164 147.53516 157.35206 147.53516 153.24609 L 147.53516 133.41992 C 147.53516 129.31395 150.50428 125.98438 154.16602 125.98438 z "
           transform="matrix(2.9499666,0,0,2.6308051,0,30.155937)"
           id="path6414" />
      </g>
    </g>
    <g
       transform="matrix(0.08969028,0,0,0.10057124,0,243.96718)"
       id="g6420"
       style="fill:#000000;fill-opacity:1" />
    <g
       transform="matrix(0.08969028,0,0,0.10057124,0,243.96718)"
       id="g6422"
       style="fill:#000000;fill-opacity:1" />
    <g
       transform="matrix(0.08969028,0,0,0.10057124,0,243.96718)"
       id="g6424"
       style="fill:#000000;fill-opacity:1" />
    <g
       transform="matrix(0.08969028,0,0,0.10057124,0,243.96718)"
       id="g6426"
       style="fill:#000000;fill-opacity:1" />
    <g
       transform="matrix(0.08969028,0,0,0.10057124,0,243.96718)"
       id="g6428"
       style="fill:#000000;fill-opacity:1" />
    <g
       transform="matrix(0.08969028,0,0,0.10057124,0,243.96718)"
       id="g6430"
       style="fill:#000000;fill-opacity:1" />
    <g
       transform="matrix(0.08969028,0,0,0.10057124,0,243.96718)"
       id="g6432"
       style="fill:#000000;fill-opacity:1" />
    <g
       transform="matrix(0.08969028,0,0,0.10057124,0,243.96718)"
       id="g6434"
       style="fill:#000000;fill-opacity:1" />
    <g
       transform="matrix(0.08969028,0,0,0.10057124,0,243.96718)"
       id="g6436"
       style="fill:#000000;fill-opacity:1" />
    <g
       transform="matrix(0.08969028,0,0,0.10057124,0,243.96718)"
       id="g6438"
       style="fill:#000000;fill-opacity:1" />
    <g
       transform="matrix(0.08969028,0,0,0.10057124,0,243.96718)"
       id="g6440"
       style="fill:#000000;fill-opacity:1" />
    <g
       transform="matrix(0.08969028,0,0,0.10057124,0,243.96718)"
       id="g6442"
       style="fill:#000000;fill-opacity:1" />
    <g
       transform="matrix(0.08969028,0,0,0.10057124,0,243.96718)"
       id="g6444"
       style="fill:#000000;fill-opacity:1" />
    <g
       transform="matrix(0.08969028,0,0,0.10057124,0,243.96718)"
       id="g6446"
       style="fill:#000000;fill-opacity:1" />
    <g
       transform="matrix(0.08969028,0,0,0.10057124,0,243.96718)"
       id="g6448"
       style="fill:#000000;fill-opacity:1" />
  </g>
  <style
     id="style8508"
     type="text/css">
	.st0{fill:#333333;}
</style>
</svg>
